<?xml version="1.0" encoding="utf-8"?>
<!-- Generator: Adobe Illustrator 27.8.0, SVG Export Plug-In . SVG Version: 6.00 Build 0)  -->
<svg version="1.1" id="Netflix_x5F_Logo_x5F_RGB" xmlns="http://www.w3.org/2000/svg" xmlns:xlink="http://www.w3.org/1999/xlink"
	 x="0px" y="0px" viewBox="0 0 291.1 194.7" style="enable-background:new 0 0 291.1 194.7;" xml:space="preserve">
<style type="text/css">
	.st0{fill-rule:evenodd;clip-rule:evenodd;fill:#777777;}
	.st1{fill-rule:evenodd;clip-rule:evenodd;fill:#FFFFFF;}
</style>
<g>
	<path class="st0" d="M4.5,94.6c-2.3-8.3-1-16-1-25.4c8.3-4.2,16.6-4.5,25.6-4.5c7.7,0,18.7,1,25.4,4.5c0.6,8.8,1.1,16.5-1.2,26.6
		c-2.3,10-8.8,23.8-23.8,34C13.1,119.1,7.7,106.1,4.5,94.6L4.5,94.6z"/>
	<path class="st1" d="M12.3,82.4l-8,8.8c1.8,8.4,6.8,26,25.1,37.9c18.2-12.5,23-29.6,24.1-38.2l-7.8-8.6l-8.8,8.8L29,82.3L21,91
		L12.3,82.4L12.3,82.4z"/>
	<path class="st1" d="M50.3,73.5c-0.1,0-0.2-0.1,0-0.2c0.2,0,0.6,0,1.1,0.6c0.2-0.1,0.6-0.8,1.1-0.6c0,0-1.6,3.6-1.8,3.8
		c-0.6-0.3-4.8-0.6-4.4-0.6c0.3,0-3.7,0.1-4.4,0.6c-0.2-0.3-1.8-3.9-1.8-3.9c0.5-0.2,1.1,0.5,1.2,0.6c0.4-0.6,0.8-0.6,0.9-0.6
		c0.4,0.1,0.2,0.2,0.1,0.2c-1.9,1.5,0.9,3.4,1.5,1.5c2.6,0.3,1.9-1.7,1.2-2c-0.5-0.1-0.2-0.2,0-0.2c0.2-0.2,0.6-0.2,0.6,0.1
		c0-1.1,0.1-1.9,0.6-2.2c0.6,0.4,0.7,1.1,0.6,2.2c0.1-0.2,0.3-0.1,0.6-0.1c0.1,0.1,0.5,0.1,0.1,0.2c-0.6,0.2-1.3,2.4,1.2,1.9
		C49.4,76.9,52.5,74.9,50.3,73.5L50.3,73.5z M48.6,75.6l0.8,0.9l-1.5-0.2L48.6,75.6L48.6,75.6z M46.3,74.7l0.9,1.6h-1.8L46.3,74.7
		L46.3,74.7z M44,75.6l-0.7,0.9l1.5-0.2L44,75.6L44,75.6z"/>
	<path class="st1" d="M43,79.2c-0.2-0.5-0.6-1.4-0.7-1.5c0.6-0.6,3.2-0.6,4.2-0.6c1.4,0,3.3,0.2,4,0.6c0,0-0.3,1-0.6,1.6
		c-1.1-0.4-2.6-0.6-3.6-0.6C45.2,78.7,43.9,78.9,43,79.2L43,79.2z M49.5,77.8c0.2,0,0.5,0.2,0.5,0.4c0,0.2-0.2,0.5-0.5,0.5
		c-0.2,0-0.4-0.2-0.4-0.5C49,78.1,49.3,77.8,49.5,77.8L49.5,77.8z M47.9,77.5c0.2,0,0.5,0.2,0.5,0.4c0,0.2-0.2,0.5-0.5,0.5
		c-0.2,0-0.4-0.2-0.4-0.5C47.5,77.7,47.8,77.5,47.9,77.5L47.9,77.5z M46.4,77.3c0.2,0,0.5,0.2,0.5,0.5c0,0.2-0.2,0.5-0.5,0.5
		c-0.2,0-0.5-0.2-0.5-0.5C45.9,77.6,46.1,77.3,46.4,77.3L46.4,77.3z M44.8,77.5c0.2,0,0.5,0.2,0.5,0.4c0,0.2-0.2,0.5-0.5,0.5
		c-0.2,0-0.5-0.2-0.5-0.5C44.3,77.7,44.5,77.5,44.8,77.5L44.8,77.5z M43.3,77.8c0.2,0,0.5,0.2,0.5,0.4c0,0.2-0.2,0.5-0.5,0.5
		c-0.2,0-0.5-0.2-0.5-0.5C42.8,78.1,43,77.8,43.3,77.8L43.3,77.8z"/>
	<path class="st1" d="M46.3,79c1.8,0,3.5,0.3,3.5,0.6c0,0.2-1.5,0.3-3.3,0.3c-1.9,0-3.4-0.2-3.4-0.3C43,79.4,44.5,79,46.3,79
		L46.3,79z"/>
	<path class="st1" d="M23.4,68.3c0,0,1.2,0.5,2.2,0.1c1.3-0.5,2.4-0.8,3.3-0.4v10.5c-0.7-0.3-1.7-0.2-2.8,0.1
		c-1.1,0.2-1.8,0.3-2.7,0.2V68.3L23.4,68.3z M26.8,76c0-0.4,0.2-0.5,0.4-0.5c0.2,0,0.4,0.1,0.4,0.5s-0.2,0.5-0.4,0.5
		C27,76.5,26.8,76.4,26.8,76L26.8,76z M26.5,76c0,0.6,0.5,0.7,0.6,0.7c0.2,0,0.6-0.1,0.6-0.7s-0.5-0.7-0.6-0.7S26.5,75.4,26.5,76
		L26.5,76z M25.9,76.4L25.9,76.4l-0.6-1h-0.2v1.4h0.3v-1l0.5,1h0.3v-1.4H26L25.9,76.4L25.9,76.4z M24.5,76.9h0.2v-1.5h-0.2V76.9
		L24.5,76.9z M28.1,72.2h-0.4l-0.2,1.1l-0.2-1.1h-0.5v1.5h0.3v-1.2l0.2,1.2h0.3l0.2-1.2v1.2h0.3V72.2L28.1,72.2z M25.5,73
		c0-0.3,0.2-0.5,0.3-0.5c0.2,0,0.4,0.2,0.4,0.5c0,0.4-0.2,0.6-0.4,0.6S25.5,73.4,25.5,73L25.5,73z M25.1,73c0,0.7,0.5,0.8,0.6,0.8
		c0.2,0,0.7-0.1,0.7-0.8c0-0.6-0.5-0.7-0.7-0.7C25.6,72.3,25.1,72.4,25.1,73L25.1,73z M24.1,72.8h0.2c0.2,0,0.3,0,0.3,0.4
		c0,0.2-0.1,0.5-0.3,0.5h-0.2V72.8L24.1,72.8z M23.8,73.9h0.6c0.5,0,0.6-0.5,0.6-0.7s-0.1-0.6-0.6-0.6h-0.6V73.9L23.8,73.9z
		 M26.4,70.5L26.4,70.5l-0.6-1h-0.3v1.4h0.3v-1l0.6,1h0.2v-1.4h-0.2V70.5L26.4,70.5z M24.9,71h0.2v-1.4h-0.2V71L24.9,71z"/>
	<polygon class="st1" points="23,68.3 22,69.1 22,79.6 23,78.6 	"/>
	<path class="st1" d="M22.3,79.8l1-0.8c0.7,0.2,2.3-0.1,3-0.2c1.1-0.2,1.7-0.4,2.5,0c-0.5,0.2-0.7,0.6-0.7,1H22.3L22.3,79.8z"/>
	<path class="st1" d="M35.7,79.8l-1-0.8c-0.8,0.2-2.2-0.1-3-0.2c-1.3-0.2-1.7-0.4-2.4,0c0.4,0.2,0.6,0.6,0.6,1H35.7L35.7,79.8z"/>
	<polygon class="st1" points="34.9,68.2 35.9,69.1 35.9,79.4 34.9,78.6 	"/>
	<path class="st1" d="M34.6,68.3c0,0-1.2,0.5-2.3,0.1c-1.2-0.5-2.3-0.9-3-0.5v10.5c0.6-0.3,1.5-0.2,2.7,0.1c1.1,0.2,1.8,0.3,2.7,0.2
		V68.3H34.6z M30.4,76.8H31c0.5,0,0.6-0.5,0.6-0.8c0-0.2-0.1-0.6-0.6-0.6h-0.6V76.8L30.4,76.8z M30.7,75.6H31c0.1,0,0.3,0.1,0.3,0.5
		c0,0.2-0.1,0.5-0.3,0.5h-0.3V75.6L30.7,75.6z M31.9,76.2c0,0.7,0.5,0.8,0.6,0.8c0.2,0,0.7-0.1,0.7-0.8c0-0.6-0.5-0.7-0.7-0.7
		C32.4,75.5,31.9,75.6,31.9,76.2L31.9,76.2z M32.3,76.2c0-0.3,0.2-0.5,0.3-0.5c0.2,0,0.4,0.2,0.4,0.5c0,0.4-0.2,0.6-0.4,0.6
		S32.3,76.6,32.3,76.2L32.3,76.2z M31.1,73.4h0.6v-0.2h-0.6v-0.3h0.7v-0.2h-1v1.2h0.3V73.4L31.1,73.4z M32.2,74h0.3v-1.5h-0.3V74
		L32.2,74z M30.9,70c0-0.2-0.2-0.5-0.6-0.5s-0.6,0.2-0.6,0.7s0.2,0.7,0.6,0.7c0.3,0,0.6-0.2,0.6-0.5h-0.2c-0.1,0.2-0.2,0.2-0.3,0.2
		c-0.3,0-0.3-0.2-0.3-0.5c0-0.4,0.2-0.5,0.3-0.5c0.2,0,0.2,0.2,0.3,0.2h0.2V70z M31.1,70.4c0,0.7,0.5,0.8,0.7,0.8s0.6-0.1,0.6-0.8
		c0-0.6-0.5-0.7-0.6-0.7C31.6,69.7,31.1,69.8,31.1,70.4L31.1,70.4z M31.5,70.4c0-0.3,0.2-0.5,0.4-0.5c0.1,0,0.3,0.2,0.3,0.5
		c0,0.4-0.2,0.6-0.3,0.6C31.7,71,31.5,70.9,31.5,70.4L31.5,70.4z M33.6,70.8L33.6,70.8l-0.5-1h-0.3v1.4H33v-1l0.6,1h0.3v-1.4h-0.3
		V70.8L33.6,70.8z"/>
	<path class="st1" d="M29,79c-0.4,0.4-0.6,0.4-0.5,0.8h0.9C29.5,79.4,29.4,79.2,29,79L29,79z"/>
	<path class="st0" d="M11.2,98.5c0.1-0.2,0.4-1.1,0.6-1.4c-0.2-0.2-0.5-0.6-0.6-0.6c0.1-0.2,0.6-0.6,0.5-0.8
		c-0.2-0.2-0.3-0.2-0.8-0.5c0.2-0.3,0.5-0.5,0.7-0.6c0.3-0.1,0.3-0.4,0.7-0.6c0.5-0.2,1-0.2,1.5-0.3c0.7,0.1,2.8,0.6,2.2,3.2
		c1.2,2.4,5.5-0.8,7.1-0.8c-0.3,0.5-0.6,1.1-1,1.6c0.4,0.2,1,0,1.4,0c-0.4,1.4-1.2,1.9-1.9,2.4c0.7,2.2,3.2,1.4,5.5,1.1
		c-0.2,0.7-1.2,0.8-1.6,1.4c0.8,0.8,1.6,1.9,2.2,3c-1.1-0.6-3.2-1.4-3.9-1.6c-1.3-0.6-4.1-0.6-5.4,0c0.2,0.5,0.7,0.8,1.2,1.1
		c-0.7,1.4-2.1,0.6-2.9,0.3c-0.7,0.5-2,0.6-2.3,0.2c0,0,0-0.4,0.4-0.6c0.3-0.4-0.8-0.5-1.1-1c0-0.6,0.5,0,0.8-0.6
		C13.6,102.1,10.8,101.7,11.2,98.5L11.2,98.5z M13.1,94.6c0.2,0,0.2,0.1,0.2,0.2c0,0.2-0.1,0.2-0.2,0.2s-0.2-0.1-0.2-0.2
		C12.9,94.7,13,94.6,13.1,94.6L13.1,94.6z"/>
	<path class="st0" d="M30.7,98.9c0.1-0.2,0.3-1.1,0.5-1.4c-0.1-0.2-0.4-0.6-0.6-0.6c0.2-0.2,0.6-0.6,0.5-0.8
		c-0.1-0.2-0.2-0.2-0.7-0.5c0.2-0.3,0.5-0.5,0.7-0.6c0.3,0,0.3-0.4,0.7-0.6c0.5-0.2,1-0.2,1.5-0.2c0.7,0,2.8,0.6,2.2,3.1
		c1.2,2.4,5.5-0.9,7.1-0.9c-0.3,0.6-0.6,1.1-1,1.7c0.4,0.2,1,0,1.4,0c-0.4,1.4-1.3,1.9-1.9,2.4c0.6,2.2,3.2,1.4,5.5,1.1
		c-0.2,0.7-1.2,0.8-1.6,1.4c0.7,0.8,1.6,1.9,2.2,3c-1.1-0.6-3.2-1.4-3.9-1.6c-1.3-0.6-4.1-0.6-5.5,0c0.3,0.5,0.8,0.8,1.3,1.1
		c-0.7,1.4-2.1,0.6-2.9,0.3c-0.7,0.5-2,0.6-2.3,0.2c0,0,0-0.3,0.4-0.6c0.3-0.4-0.8-0.5-1.1-1c0-0.6,0.6,0,0.9-0.6
		C33.2,102.5,30.3,102.1,30.7,98.9L30.7,98.9z M32.6,95c0.2,0,0.3,0.1,0.3,0.2c0,0.2-0.2,0.2-0.3,0.2s-0.2-0.1-0.2-0.2
		S32.5,95,32.6,95L32.6,95z"/>
	<path class="st0" d="M21.3,112.7c0.2-0.3,0.4-1.1,0.6-1.4c-0.2-0.2-0.4-0.6-0.6-0.6c0.1-0.2,0.6-0.6,0.5-0.9
		c-0.1-0.2-0.3-0.2-0.7-0.4c0.2-0.3,0.5-0.6,0.7-0.6c0.2-0.1,0.2-0.4,0.6-0.6c0.5-0.2,1.1-0.2,1.5-0.3c0.7,0.1,2.8,0.6,2.3,3.2
		c1.2,2.4,5.5-0.9,7-0.9c-0.2,0.6-0.6,1.1-0.9,1.7c0.3,0.2,0.9,0,1.4,0c-0.5,1.3-1.3,1.9-1.9,2.4c0.6,2.2,3.2,1.4,5.5,1.1
		c-0.3,0.7-1.2,0.8-1.7,1.4c0.8,0.8,1.7,1.9,2.2,3c-1-0.7-3.1-1.4-3.8-1.7c-1.4-0.5-4.1-0.5-5.5,0c0.2,0.6,0.8,0.9,1.2,1.1
		c-0.6,1.4-2,0.6-2.8,0.2c-0.7,0.6-2,0.6-2.3,0.3c0,0,0-0.4,0.4-0.6c0.2-0.4-0.8-0.5-1.1-1.1c0-0.5,0.6,0,0.8-0.5
		C23.8,116.2,21,115.9,21.3,112.7L21.3,112.7z M23.3,108.7c0.2,0,0.2,0.2,0.2,0.3c0,0.1-0.1,0.2-0.2,0.2s-0.2-0.2-0.2-0.2
		C23,108.9,23.2,108.7,23.3,108.7L23.3,108.7z"/>
	<path class="st1" d="M16,73.5c-0.1,0-0.2-0.1,0-0.2c0.2,0,0.6,0,1.1,0.6c0.2-0.1,0.6-0.8,1.1-0.6c0,0-1.6,3.6-1.8,3.8
		c-0.6-0.3-4.8-0.6-4.4-0.6c0.3,0-3.7,0.1-4.4,0.6c-0.2-0.3-1.8-3.9-1.8-3.9C6.3,73,6.9,73.7,7,73.8c0.4-0.6,0.8-0.6,0.9-0.6
		c0.4,0.1,0.2,0.2,0.1,0.2c-1.9,1.5,0.9,3.4,1.5,1.5c2.6,0.3,1.9-1.7,1.2-2c-0.5-0.1-0.2-0.2,0-0.2c0.2-0.2,0.6-0.2,0.6,0.1
		c0-1.1,0.1-1.9,0.6-2.2c0.6,0.4,0.7,1.1,0.6,2.2c0.1-0.2,0.3-0.1,0.6-0.1c0.1,0.1,0.5,0.1,0.1,0.2c-0.6,0.2-1.3,2.4,1.2,1.9
		C15.1,76.9,18.2,74.9,16,73.5L16,73.5z M14.3,75.6l0.8,0.9l-1.5-0.2L14.3,75.6L14.3,75.6z M12,74.7l0.9,1.6h-1.8L12,74.7L12,74.7z
		 M9.7,75.6L9,76.5l1.5-0.2L9.7,75.6L9.7,75.6z"/>
	<path class="st1" d="M8.8,79.2c-0.3-0.5-0.6-1.4-0.8-1.5c0.6-0.6,3.2-0.6,4.2-0.6c1.4,0,3.3,0.2,4,0.6c0,0-0.3,1-0.6,1.6
		c-1.1-0.4-2.6-0.6-3.6-0.6C10.9,78.7,9.6,78.9,8.8,79.2L8.8,79.2z M15.2,77.8c0.2,0,0.5,0.2,0.5,0.4c0,0.2-0.2,0.5-0.5,0.5
		c-0.2,0-0.4-0.2-0.4-0.5C14.8,78.1,15,77.8,15.2,77.8L15.2,77.8z M13.6,77.5c0.2,0,0.5,0.2,0.5,0.4c0,0.2-0.2,0.5-0.5,0.5
		c-0.2,0-0.4-0.2-0.4-0.5C13.2,77.7,13.5,77.5,13.6,77.5L13.6,77.5z M12.1,77.3c0.2,0,0.5,0.2,0.5,0.5c0,0.2-0.2,0.5-0.5,0.5
		c-0.2,0-0.5-0.2-0.5-0.5C11.6,77.6,11.8,77.3,12.1,77.3L12.1,77.3z M10.5,77.5c0.2,0,0.5,0.2,0.5,0.4c0,0.2-0.2,0.5-0.5,0.5
		c-0.2,0-0.5-0.2-0.5-0.5C10,77.7,10.2,77.5,10.5,77.5L10.5,77.5z M9,77.8c0.2,0,0.5,0.2,0.5,0.4c0,0.2-0.2,0.5-0.5,0.5
		c-0.2,0-0.5-0.2-0.5-0.5C8.5,78.1,8.8,77.8,9,77.8L9,77.8z"/>
	<path class="st1" d="M12,79c1.8,0,3.5,0.3,3.5,0.6c0,0.2-1.5,0.3-3.3,0.3c-1.9,0-3.4-0.2-3.4-0.3C8.8,79.4,10.2,79,12,79L12,79z"/>
	<path class="st0" d="M229.9,70.8c2.2,0,4,1.8,4,4s-1.8,4.1-4,4.1s-4-1.9-4-4.1C226,72.6,227.8,70.8,229.9,70.8L229.9,70.8z
		 M267.6,113c-0.2,1.8-1,2.9-4.2,3.8c-2.6,0.8-2.3,2.2,0.3,2.4c7.1-1.1,9.2-0.9,15.6-0.2c2.5-0.1,2.1-1.6,0.6-2.4
		c-3.7-1.5-4.3-1.5-5-5.2l-0.3-37c0-2.1,0.8-4.6-1.5-4.1c-4.2,1.7-4.5,1.8-8.4,3.2c-2,0.8-1.2,1.9,0.2,2.3c2,0.8,2.2,2,2.4,3.6
		L267.6,113L267.6,113z M246,112.8c-0.2,1.7-1.1,2.8-4.3,3.8c-2.6,0.8-2.3,2.2,0.3,2.3c7.1-1,9.2-0.8,15.6-0.2
		c2.5,0,2.1-1.6,0.6-2.3c-3.7-1.5-4.3-1.5-5-5.1l-0.3-37c0-2.1,0.8-4.6-1.5-4.1c-4.2,1.7-4.5,1.9-8.4,3.2c-1.9,0.9-1.2,1.9,0.2,2.4
		c2,0.8,2.3,2.1,2.3,3.6L246,112.8L246,112.8z M226.1,98.2c-0.2-1.9-0.4-3.3-2.5-4c-1.5-0.2-2.3-1.5-0.1-2.4c4.4-1.5,5-1.7,8.3-4.5
		c1.1-0.5,2.3-0.1,1.7,1.8c-0.2,1.5-0.2,2.1-0.3,3.6l0.1,19.3c0.2,3.2,2.6,3.6,4.1,4.3c1.6,0.6,1.7,2.4-0.1,2.5
		c-6.9-1-8.3-1.1-15,0.2c-2.2,0.1-2.7-1.6,0.1-2.6c2.7-1,3.6-1.5,3.7-3.7V98.2L226.1,98.2z M165.6,94.7
		c1.5-16.5,12.1-23.3,26.9-24.5c15.6,0.1,17.9,1.1,17.7,9.8c0.1,3.2-1.9,3.9-3.4,0.3c-1.7-3.2-3.1-5-7.1-6.6
		c-13.5-3.1-23.5,5.6-24.1,20.3c-1,20.7,22.3,26.8,27.1,19c1.1-2,1.1-7.4,0.9-11.8c-0.8-2.9-3.6-2.7-6.3-2.8c-2.9,0.2-4-3.1-0.1-3.1
		c3.8,0,11.2,0.4,20.6-0.5c2.8,0.1,3,2.6-0.4,3c-1.5,0.3-4.6,0.2-5,2.7c-0.3,12.6,2.6,13.9-6.9,17.3c-12.2,2.8-25.3,1.5-32.7-5.6
		C169.5,109.3,165.3,102.6,165.6,94.7L165.6,94.7z M134.2,103.1c1.4-13.6,12.7-16.9,18.6-16.9c6.9,0.2,9.1,2.4,9.2,4.8
		c0.1,2.3-1.5,3.5-3.3,3c-3.8-1-3.1-5-8.2-5.3c-5.7,0.8-9.2,7.2-8.2,14.9s8.4,13.4,17.5,8.7c2.2-0.5,2.4,1.4,0.6,2.6
		C143.7,125.2,133.6,110.6,134.2,103.1L134.2,103.1z M82.8,80.2c-0.4-4.7-1.9-3.2-5.4-4.7c-2.9-0.6-3.2-2.7-0.2-2.8
		c5.1,0.4,7.7,0.5,12-0.2c1.9,0.3,2.8,1.1,3.6,3c3.6,7.6,8.8,19,12.4,26.7c0.6,1.4,1,1.6,1.8-0.1l10.5-27.2c1.1-2.3,2.4-2.8,6.2-2.5
		c6.4,0.1,7.9-0.1,11.1-0.4c2.7,0.1,2.5,2.2-0.2,2.9c-4.1,0-6.2,1.5-6.9,4.5l0.6,31.1c0.6,4.6,3.1,4.8,7.4,5.8
		c2,0.9,1.5,2.3-0.1,2.8c-9.1-1.1-12.2-1-21.2-0.2c-2.6,0.2-2.8-1.9,0-2.6c3.3-0.7,4.2-1.3,4.9-3l-0.7-30.1
		c-0.1-1.1-0.8-1.1-1.3,0.2L104.7,115c-1.1,2.8-1.7,2.8-3,0.6l-15-32.4c-0.4-1.1-1-0.8-1.1-0.1l0.2,28.6c0.4,3.3,2.7,3.5,7.4,4.9
		c1.3,0.5,1.4,1.5,0.3,2.3c-9.2-0.7-10.6-0.7-19.1,0.3c-1.3,0-1.9-1.9,0.2-2.3c4.5-1.3,5.7-1.3,6.4-3.9L82.8,80.2L82.8,80.2z"/>
</g>
</svg>
